<?xml version="1.0" encoding="utf-8"?>
<!-- Svg Vector Icons : http://www.onlinewebfonts.com/icon -->
<!DOCTYPE svg PUBLIC "-//W3C//DTD SVG 1.1//EN" "http://www.w3.org/Graphics/SVG/1.1/DTD/svg11.dtd">
<svg version="1.1" xmlns="http://www.w3.org/2000/svg" xmlns:xlink="http://www.w3.org/1999/xlink" x="0px" y="0px" viewBox="0 0 256 256" enable-background="new 0 0 256 256" xml:space="preserve">
<metadata> Svg Vector Icons : http://www.onlinewebfonts.com/icon </metadata>
<g><g><path fill="#ffffff" d="M229.4,183.2c-5.5,12.3-8.2,17.8-15.3,28.6c-9.9,15.2-24,34-41.4,34.2c-15.5,0.1-19.4-10.1-40.4-9.9c-21,0.1-25.4,10.1-40.8,10c-17.4-0.2-30.7-17.2-40.7-32.4C23,171.3,20.1,121.5,37.2,95.1c12.2-18.8,31.5-29.8,49.6-29.8c18.4,0,30,10.1,45.3,10.1c14.8,0,23.8-10.1,45.1-10.1c16.1,0,33.2,8.8,45.3,23.9C182.7,111,189.2,167.9,229.4,183.2L229.4,183.2z"/><path fill="#ffffff" d="M161,48.3c7.8-9.9,13.6-24,11.5-38.3c-12.6,0.9-27.5,8.9-36.1,19.4c-7.9,9.5-14.3,23.7-11.8,37.4C138.4,67.2,152.7,59,161,48.3L161,48.3z"/></g></g>
</svg>