<svg width="196" height="133" viewBox="0 0 196 133" fill="none" xmlns="http://www.w3.org/2000/svg">
<path fill-rule="evenodd" clip-rule="evenodd" d="M98.784 78.7756C89.5395 78.7756 82.0454 71.3686 82.0454 62.2316C82.0454 54.9989 86.7414 48.8502 93.2842 46.6015C92.2412 45.3562 91.6132 43.7514 91.6132 42C91.6132 41.8793 91.6162 41.7593 91.6221 41.6401C82.9742 44.5778 76.7596 52.6874 76.7596 62.2316C76.7596 74.2539 86.6202 83.9999 98.784 83.9999C110.948 83.9999 120.808 74.2539 120.808 62.2317C120.808 52.6874 114.594 44.5778 105.946 41.6401C105.952 41.7593 105.955 41.8793 105.955 42C105.955 43.7514 105.327 45.3562 104.284 46.6015C110.827 48.8502 115.522 54.9989 115.522 62.2317C115.522 71.3686 108.028 78.7756 98.784 78.7756Z" fill="white"/>
<path opacity="0.7" fill-rule="evenodd" clip-rule="evenodd" d="M83.1365 67.9251C82.4533 66.1208 82.0797 64.167 82.0797 62.1269C82.0797 59.686 82.6145 57.3685 83.5747 55.2828L77.8435 55.4676C77.1619 57.5665 76.7938 59.8042 76.7938 62.1269C76.7938 64.6413 77.2251 67.0561 78.0186 69.303L83.1365 67.9251Z" fill="url(#paint0_linear_7_252)"/>
<path fill-rule="evenodd" clip-rule="evenodd" d="M93.2842 37.3985C86.7414 35.1497 82.0454 29.001 82.0454 21.7683C82.0454 12.6313 89.5395 5.22439 98.784 5.22439C108.028 5.22439 115.522 12.6313 115.522 21.7683C115.522 29.001 110.827 35.1497 104.284 37.3985C105.327 38.6437 105.955 40.2485 105.955 42C105.955 42.1207 105.952 42.2406 105.946 42.3598C114.594 39.4222 120.808 31.3125 120.808 21.7683C120.808 9.746 110.948 -4.31023e-07 98.784 -9.62717e-07C86.6202 -1.49441e-06 76.7596 9.746 76.7596 21.7683C76.7596 31.3125 82.9742 39.4222 91.6221 42.3598C91.6162 42.2406 91.6132 42.1207 91.6132 42C91.6132 40.2485 92.2412 38.6437 93.2842 37.3985Z" fill="white"/>
<path opacity="0.7" fill-rule="evenodd" clip-rule="evenodd" d="M114.076 16.7437C114.759 18.5481 115.133 20.5019 115.133 22.5419C115.133 24.9829 114.598 27.3003 113.638 29.3861L119.369 29.2013C120.05 27.1024 120.418 24.8646 120.418 22.5419C120.418 20.0276 119.987 17.6128 119.194 15.3658L114.076 16.7437Z" fill="url(#paint1_linear_7_252)"/>
<path fill-rule="evenodd" clip-rule="evenodd" d="M94.2043 58.9025C94.2043 61.4317 96.2547 63.4821 98.7839 63.4821C101.313 63.4821 103.364 61.4317 103.364 58.9025C103.364 56.3732 101.313 54.3229 98.7839 54.3229C96.2547 54.3229 94.2043 56.3732 94.2043 58.9025ZM89.0522 58.9025C89.0522 64.2772 93.4092 68.6342 98.7839 68.6342C104.159 68.6342 108.516 64.2772 108.516 58.9025C108.516 53.5278 104.159 49.1708 98.7839 49.1708C93.4092 49.1708 89.0522 53.5278 89.0522 58.9025Z" fill="white"/>
<path fill-rule="evenodd" clip-rule="evenodd" d="M94.2043 25.0976C94.2043 27.6268 96.2547 29.6772 98.7839 29.6772C101.313 29.6772 103.364 27.6268 103.364 25.0976C103.364 22.5683 101.313 20.5179 98.7839 20.5179C96.2547 20.5179 94.2043 22.5683 94.2043 25.0976ZM89.0522 25.0976C89.0522 30.4722 93.4092 34.8293 98.7839 34.8293C104.159 34.8293 108.516 30.4722 108.516 25.0976C108.516 19.7229 104.159 15.3658 98.7839 15.3658C93.4092 15.3658 89.0522 19.7229 89.0522 25.0976Z" fill="white"/>
<path fill-rule="evenodd" clip-rule="evenodd" d="M135.56 42C135.56 51.2444 128.153 58.7385 119.016 58.7385C111.783 58.7385 105.635 54.0426 103.386 47.4998C102.141 48.5428 100.536 49.1707 98.7842 49.1707C98.6636 49.1707 98.5436 49.1677 98.4244 49.1618C101.362 57.8097 109.472 64.0244 119.016 64.0244C131.038 64.0244 140.784 54.1637 140.784 42C140.784 29.8362 131.038 19.9756 119.016 19.9756C109.472 19.9756 101.362 26.1902 98.4244 34.8381C98.5436 34.8322 98.6636 34.8292 98.7842 34.8292C100.536 34.8292 102.141 35.4572 103.386 36.5002C105.635 29.9574 111.783 25.2614 119.016 25.2614C128.153 25.2614 135.56 32.7555 135.56 42Z" fill="white"/>
<path opacity="0.53" fill-rule="evenodd" clip-rule="evenodd" d="M124.743 57.7961C122.939 58.467 120.985 58.8339 118.945 58.8339C116.504 58.8339 114.187 58.3087 112.101 57.3658L112.286 62.9937C114.385 63.663 116.623 64.0244 118.945 64.0244C121.46 64.0244 123.874 63.6009 126.121 62.8217L124.743 57.7961Z" fill="url(#paint2_linear_7_252)"/>
<path fill-rule="evenodd" clip-rule="evenodd" d="M94.1826 47.4998C91.9339 54.0426 85.7852 58.7385 78.5525 58.7385C69.4155 58.7385 62.0086 51.2444 62.0086 42C62.0086 32.7555 69.4155 25.2614 78.5525 25.2614C85.7852 25.2614 91.9339 29.9574 94.1826 36.5002C95.4279 35.4572 97.0327 34.8293 98.7842 34.8293C98.9048 34.8293 99.0248 34.8323 99.144 34.8382C96.2064 26.1902 88.0967 19.9756 78.5525 19.9756C66.5302 19.9756 56.7842 29.8362 56.7842 42C56.7842 54.1637 66.5302 64.0244 78.5525 64.0244C88.0967 64.0244 96.2063 57.8098 99.144 49.1619C99.0248 49.1678 98.9048 49.1708 98.7842 49.1708C97.0327 49.1708 95.4279 48.5428 94.1826 47.4998Z" fill="white"/>
<path opacity="0.7" fill-rule="evenodd" clip-rule="evenodd" d="M72.7543 26.3183C74.5587 25.635 76.5125 25.2614 78.5525 25.2614C80.9934 25.2614 83.3109 25.7963 85.3966 26.7565L85.2118 21.0253C83.1129 20.3436 80.8752 19.9756 78.5525 19.9756C76.0381 19.9756 73.6234 20.4069 71.3765 21.2004L72.7543 26.3183Z" fill="url(#paint3_linear_7_252)"/>
<path fill-rule="evenodd" clip-rule="evenodd" d="M115.687 46.5796C118.216 46.5796 120.266 44.5293 120.266 42C120.266 39.4708 118.216 37.4204 115.687 37.4204C113.157 37.4204 111.107 39.4708 111.107 42C111.107 44.5293 113.157 46.5796 115.687 46.5796ZM115.687 51.7317C121.061 51.7317 125.418 47.3747 125.418 42C125.418 36.6253 121.061 32.2683 115.687 32.2683C110.312 32.2683 105.955 36.6253 105.955 42C105.955 47.3747 110.312 51.7317 115.687 51.7317Z" fill="white"/>
<path fill-rule="evenodd" clip-rule="evenodd" d="M81.8817 46.5796C84.411 46.5796 86.4614 44.5293 86.4614 42C86.4614 39.4708 84.411 37.4204 81.8817 37.4204C79.3525 37.4204 77.3021 39.4708 77.3021 42C77.3021 44.5293 79.3525 46.5796 81.8817 46.5796ZM81.8817 51.7317C87.2564 51.7317 91.6134 47.3747 91.6134 42C91.6134 36.6253 87.2564 32.2683 81.8817 32.2683C76.5071 32.2683 72.15 36.6253 72.15 42C72.15 47.3747 76.5071 51.7317 81.8817 51.7317Z" fill="white"/>
<path fill-rule="evenodd" clip-rule="evenodd" d="M91.6976 42.0001C91.6976 45.9138 94.8703 49.0865 98.784 49.0865C102.698 49.0865 105.87 45.9138 105.87 42.0001C105.87 38.0864 102.698 34.9137 98.784 34.9137C94.8703 34.9137 91.6976 38.0864 91.6976 42.0001ZM86.4913 42.0001C86.4913 48.7891 91.9949 54.2928 98.784 54.2928C105.573 54.2928 111.077 48.7891 111.077 42.0001C111.077 35.211 105.573 29.7074 98.784 29.7074C91.9949 29.7074 86.4913 35.211 86.4913 42.0001Z" fill="white"/>
<path d="M115.45 63.7215C115.619 61.5602 115.525 60.3482 115.017 58.2266C117.379 57.8284 118.04 58.2418 120.498 58.6033C121.008 60.7819 121.009 61.9423 120.741 63.9509C118.544 64.2717 117.65 64.238 115.45 63.7215Z" fill="white"/>
<path d="M77.0925 25.5674C76.7807 23.4822 76.7313 22.1096 76.8098 19.958C79.0559 19.5666 79.8192 19.8544 82.1564 20.2097C82.0883 22.3463 81.9666 23.4719 82.5024 25.7608L77.0925 25.5674Z" fill="white"/>
<path d="M195.638 124.584H194.486H180.95C181.778 126.384 183.902 127.68 186.386 127.68C188.078 127.68 189.626 127.104 190.706 126.096L195.35 127.932C193.406 130.524 190.058 132.144 186.386 132.144C180.446 132.144 175.658 127.932 175.658 122.784C175.658 117.672 180.158 113.46 185.738 113.46C191.282 113.46 195.818 117.672 195.818 122.784C195.818 123.396 195.746 124.008 195.638 124.584ZM180.878 121.02H190.562C189.806 119.22 187.934 117.924 185.738 117.924C183.542 117.924 181.634 119.22 180.878 121.02Z" fill="white"/>
<path d="M169.946 113.82H175.13L167.966 131.784H162.17L155.006 113.82H160.19L165.05 126.492L169.946 113.82Z" fill="white"/>
<path d="M147.883 113.82H152.779V131.82H147.883V129.336C147.163 130.056 146.371 130.704 145.399 131.208C144.211 131.748 142.915 132.108 141.547 132.144C140.215 132.18 138.847 131.964 137.623 131.46C136.363 130.992 135.247 130.272 134.311 129.408C132.475 127.608 131.467 125.196 131.503 122.784C131.467 120.408 132.475 117.996 134.311 116.196C135.247 115.332 136.363 114.612 137.623 114.144C138.847 113.64 140.215 113.424 141.547 113.46C142.915 113.532 144.211 113.856 145.363 114.396C146.371 114.9 147.163 115.548 147.883 116.268V113.82ZM147.271 125.016C147.667 124.332 147.883 123.576 147.883 122.784C147.883 122.028 147.667 121.272 147.271 120.588C146.911 119.94 146.335 119.364 145.687 118.932C145.075 118.5 144.355 118.212 143.635 118.068C142.951 117.924 142.231 117.852 141.547 117.888C140.179 117.996 138.919 118.5 137.947 119.4C137.443 119.832 137.047 120.372 136.759 120.948C136.507 121.524 136.363 122.172 136.363 122.784C136.363 123.432 136.507 124.08 136.759 124.656C137.047 125.232 137.443 125.772 137.947 126.204C138.919 127.104 140.179 127.608 141.547 127.68C142.231 127.716 142.951 127.68 143.635 127.536C144.355 127.356 145.039 127.068 145.687 126.672C146.335 126.24 146.911 125.664 147.271 125.016Z" fill="white"/>
<path d="M129.193 124.584H128.041H114.505C115.333 126.384 117.457 127.68 119.941 127.68C121.633 127.68 123.181 127.104 124.261 126.096L128.905 127.932C126.961 130.524 123.613 132.144 119.941 132.144C114.001 132.144 109.213 127.932 109.213 122.784C109.213 117.672 113.713 113.46 119.293 113.46C124.837 113.46 129.373 117.672 129.373 122.784C129.373 123.396 129.301 124.008 129.193 124.584ZM114.433 121.02H124.117C123.361 119.22 121.489 117.924 119.293 117.924C117.097 117.924 115.189 119.22 114.433 121.02Z" fill="white"/>
<path d="M105.261 106.836H110.733L100.545 132H95.2531L92.0851 123.288L88.9171 132H83.6251L73.4371 106.836H78.8731L86.2531 125.052L89.3491 117.42L85.0651 106.836H90.5371L92.0851 111.552L93.6331 106.836H99.1051L94.8211 117.42L97.9171 125.052L105.261 106.836Z" fill="white"/>
<path d="M63.4508 124.584H62.2988H48.7628C49.5908 126.384 51.7148 127.68 54.1988 127.68C55.8908 127.68 57.4388 127.104 58.5188 126.096L63.1628 127.932C61.2188 130.524 57.8708 132.144 54.1988 132.144C48.2588 132.144 43.4708 127.932 43.4708 122.784C43.4708 117.672 47.9708 113.46 53.5508 113.46C59.0948 113.46 63.6308 117.672 63.6308 122.784C63.6308 123.396 63.5588 124.008 63.4508 124.584ZM48.6908 121.02H58.3748C57.6188 119.22 55.7468 117.924 53.5508 117.924C51.3548 117.924 49.4468 119.22 48.6908 121.02Z" fill="white"/>
<path d="M36.0473 126.996V123.396V122.784C36.0473 122.604 36.0473 122.46 36.0473 122.316C36.0113 121.668 35.8673 121.056 35.6873 120.516C35.4713 119.94 35.1833 119.472 34.8593 119.112C34.4993 118.752 34.1753 118.5 33.7433 118.284C33.3473 118.104 32.8793 117.96 32.3033 117.888C31.9793 117.888 31.6913 117.852 31.4033 117.888C31.4033 117.888 31.4033 117.888 31.3673 117.888C31.3313 117.888 31.2953 117.888 31.2593 117.888C31.1873 117.924 31.1153 117.924 31.0433 117.924C28.4873 118.212 27.0473 120.084 27.0473 122.244V131.784H22.1873V106.62H27.0473V116.088C27.0473 116.088 28.3793 113.964 31.5473 113.532C31.7993 113.496 32.0513 113.496 32.3033 113.496C33.4553 113.424 34.7873 113.604 35.9393 114.108C37.1273 114.612 38.1713 115.404 38.8913 116.304C39.6473 117.204 40.1153 118.212 40.4393 119.184C40.7273 120.156 40.8713 121.164 40.9073 122.1L40.9433 131.784H36.0473V126.996Z" fill="white"/>
<path d="M20.052 106.836V111.48H12.564V132H7.452V111.48H0V106.836H20.052Z" fill="white"/>
<defs>
<linearGradient id="paint0_linear_7_252" x1="80.1231" y1="55.4687" x2="80.3792" y2="67.2492" gradientUnits="userSpaceOnUse">
<stop stop-opacity="0"/>
<stop offset="0.425"/>
<stop offset="1" stop-opacity="0"/>
</linearGradient>
<linearGradient id="paint1_linear_7_252" x1="117.089" y1="29.2001" x2="116.833" y2="17.4196" gradientUnits="userSpaceOnUse">
<stop stop-opacity="0"/>
<stop offset="0.425"/>
<stop offset="1" stop-opacity="0"/>
</linearGradient>
<linearGradient id="paint2_linear_7_252" x1="112.287" y1="60.7552" x2="124.067" y2="60.4944" gradientUnits="userSpaceOnUse">
<stop stop-opacity="0"/>
<stop offset="0.425"/>
<stop offset="1" stop-opacity="0"/>
</linearGradient>
<linearGradient id="paint3_linear_7_252" x1="85.2107" y1="23.3049" x2="73.4302" y2="23.561" gradientUnits="userSpaceOnUse">
<stop stop-opacity="0"/>
<stop offset="0.425"/>
<stop offset="1" stop-opacity="0"/>
</linearGradient>
</defs>
</svg>
